<?xml version="1.0" encoding="UTF-8"?>
<svg version="1.1" xmlns="http://www.w3.org/2000/svg" width="64" height="64">
<path d="M0 0 C1.6484375 1.09375 1.6484375 1.09375 3 3 C3.69339358 7.70351979 3.60759271 12.28839474 3 17 C0.625 20.1875 0.625 20.1875 -2 22 C-2.66 22.99 -3.32 23.98 -4 25 C-3.29875 24.566875 -2.5975 24.13375 -1.875 23.6875 C-0.92625 23.130625 0.0225 22.57375 1 22 C1.94875 21.4225 2.8975 20.845 3.875 20.25 C7.81380944 18.67447622 9.92863032 18.88962645 14 20 C16.75226536 21.81399308 18.6141671 23.47526726 20.5625 26.125 C22.17718733 28.23111391 23.57352121 28.99593981 26 30 C25.67 31.32 25.34 32.64 25 34 C25.99 34.495 25.99 34.495 27 35 C27 35.99 27 36.98 27 38 C22.67265609 40.22923777 19.71599818 39.92470553 15 39 C15.33 40.65 15.66 42.3 16 44 C15.175 44.4125 14.35 44.825 13.5 45.25 C10.43232964 48.6244374 10.73698209 49.69781 10.875 54.125 C10.99488281 55.70667969 10.99488281 55.70667969 11.1171875 57.3203125 C11.07851563 58.20460937 11.03984375 59.08890625 11 60 C8 62 8 62 4 62 C3.67 61.01 3.34 60.02 3 59 C4.98 58.505 4.98 58.505 7 58 C7.33 56.35 7.66 54.7 8 53 C7.01 53 6.02 53 5 53 C5 51.35 5 49.7 5 48 C6.485 47.505 6.485 47.505 8 47 C7.67 44.69 7.34 42.38 7 40 C6.22914062 39.75765625 5.45828125 39.5153125 4.6640625 39.265625 C3.66117188 38.93046875 2.65828125 38.5953125 1.625 38.25 C0.62726562 37.92515625 -0.37046875 37.6003125 -1.3984375 37.265625 C-4.38905809 35.8107285 -4.75110539 34.96466572 -6 32 C-6.99 31.34 -7.98 30.68 -9 30 C-9.73392562 27.01536914 -10.20075524 24.9883852 -10 22 C-7.97621735 18.67521421 -6.2386962 17.1591308 -3 15 C-2.27617533 12.94074861 -2.27617533 12.94074861 -2 11 C-8.525434 9.99607024 -8.525434 9.99607024 -15 11 C-15.25 8.6875 -15.25 8.6875 -15 6 C-13.3125 4.375 -13.3125 4.375 -11 3 C-9.824375 2.1646875 -9.824375 2.1646875 -8.625 1.3125 C-5.46040205 -0.26979897 -3.49592018 -0.45598959 0 0 Z M10 39 C10 40.98 10 42.96 10 45 C10.99 44.67 11.98 44.34 13 44 C12.34 42.35 11.68 40.7 11 39 C10.67 39 10.34 39 10 39 Z " fill="#E86C78" transform="translate(25,1)"/>
<path d="M0 0 C0.99 0 1.98 0 3 0 C3.33 1.65 3.66 3.3 4 5 C4.66 5 5.32 5 6 5 C5.34 3.35 4.68 1.7 4 0 C5.32 0.33 6.64 0.66 8 1 C8.33 2.32 8.66 3.64 9 5 C8.175 5.4125 7.35 5.825 6.5 6.25 C3.43232964 9.6244374 3.73698209 10.69781 3.875 15.125 C3.95492187 16.17945312 4.03484375 17.23390625 4.1171875 18.3203125 C4.05917969 19.64675781 4.05917969 19.64675781 4 21 C1 23 1 23 -3 23 C-3.33 22.01 -3.66 21.02 -4 20 C-2.68 19.67 -1.36 19.34 0 19 C0.33 17.35 0.66 15.7 1 14 C0.01 14 -0.98 14 -2 14 C-2 12.35 -2 10.7 -2 9 C-1.01 8.67 -0.02 8.34 1 8 C0.67 5.36 0.34 2.72 0 0 Z " fill="#711F2E" transform="translate(32,40)"/>
<path d="M0 0 C0.86625 0.3403125 0.86625 0.3403125 1.75 0.6875 C2.08 2.0075 2.41 3.3275 2.75 4.6875 C-1.705 6.1725 -1.705 6.1725 -6.25 7.6875 C-6.5 5.375 -6.5 5.375 -6.25 2.6875 C-4.11319077 0.39806154 -3.15626895 -0.43837069 0 0 Z " fill="#B4AA82" transform="translate(16.25,4.3125)"/>
</svg>
